<svg width="16" height="16" viewBox="0 0 16 16" fill="none" xmlns="http://www.w3.org/2000/svg">
<path fill-rule="evenodd" clip-rule="evenodd" d="M5.93329 1.31169H10.0466C11.8533 1.31169 13.3133 2.01344 13.3333 3.79734V13.7531C13.3333 13.8646 13.3066 13.9761 13.2533 14.0744C13.1666 14.2318 13.0199 14.3499 12.8399 14.4024C12.6666 14.4548 12.4733 14.4286 12.3133 14.3368L7.99328 12.2118L3.66662 14.3368C3.56729 14.3886 3.45329 14.422 3.33996 14.422C2.96662 14.422 2.66662 14.1203 2.66662 13.7531V3.79734C2.66662 2.01344 4.13329 1.31169 5.93329 1.31169ZM5.47995 6.30922H10.4999C10.7866 6.30922 11.0199 6.07902 11.0199 5.79111C11.0199 5.50253 10.7866 5.27299 10.4999 5.27299H5.47995C5.19329 5.27299 4.95995 5.50253 4.95995 5.79111C4.95995 6.07902 5.19329 6.30922 5.47995 6.30922Z" fill="white"/>
</svg>
